<?xml version="1.0" encoding="UTF-8"?>
<svg version="1.1" xmlns="http://www.w3.org/2000/svg" width="341" height="335">
<path d="M0 0 C0.90462982 -0.00073517 1.80925964 -0.00147034 2.74130249 -0.00222778 C17.75971441 0.02976049 31.76331471 1.16673616 46.25 5.4375 C47.14396484 5.69982422 48.03792969 5.96214844 48.95898438 6.23242188 C74.67585753 14.04300899 97.76197082 27.95589486 117.25 46.4375 C118.14589844 47.28054687 119.04179687 48.12359375 119.96484375 48.9921875 C149.53299681 77.60652917 168.04849415 119.27286496 169.25 160.4375 C169.28996094 161.57703125 169.32992188 162.7165625 169.37109375 163.890625 C170.22632461 211.17986102 151.68651337 253.79232414 119.30761719 287.71484375 C98.13501186 309.37322234 71.7166249 322.99555499 42.8125 331.3125 C42.1522583 331.50384521 41.4920166 331.69519043 40.81176758 331.89233398 C28.50311248 335.20707152 16.18424643 335.78636487 3.52001953 335.75317383 C1.01680563 335.75002117 -1.48521281 335.77354708 -3.98828125 335.79882812 C-18.48779642 335.85648063 -32.68411547 334.17002761 -46.5625 329.8125 C-47.3781543 329.56016602 -48.19380859 329.30783203 -49.03417969 329.04785156 C-75.55778524 320.55019355 -97.65608814 306.60916 -117.75 287.4375 C-118.54277344 286.69757813 -119.33554688 285.95765625 -120.15234375 285.1953125 C-141.03349641 265.15821347 -155.60014115 237.25633374 -162.75 209.4375 C-163.06324219 208.27202637 -163.06324219 208.27202637 -163.3828125 207.08300781 C-169.44187534 183.64248782 -169.80135569 153.95796537 -163.75 130.4375 C-163.54600586 129.63296387 -163.34201172 128.82842773 -163.13183594 127.99951172 C-154.23635094 93.97784237 -136.22589598 66.31371333 -111.21118164 41.86694336 C-110.05019227 40.7311718 -108.89844968 39.58594968 -107.75 38.4375 C-96.3881229 29.17271867 -83.91573066 21.49251931 -70.64501953 15.31933594 C-68.88981487 14.50256201 -67.14553779 13.66241557 -65.40234375 12.8203125 C-58.32912624 9.56612661 -51.18117584 7.26265222 -43.6875 5.1875 C-42.80175293 4.94112793 -41.91600586 4.69475586 -41.00341797 4.44091797 C-27.34897304 0.81892314 -14.04974898 -0.0049695 0 0 Z M-27.75 6.4375 C-24.93116389 8.03156055 -22.95927657 8.68080644 -19.72607422 8.61694336 C-18.94360321 8.60710922 -18.1611322 8.59727509 -17.35494995 8.58714294 C-16.51336334 8.56740921 -15.67177673 8.54767548 -14.8046875 8.52734375 C-12.98568026 8.50687741 -11.16666968 8.48670535 -9.34765625 8.46679688 C-6.50913556 8.42383312 -3.67083587 8.37588562 -0.83251953 8.32104492 C16.0432361 8.01868143 31.52045561 9.84855411 47.82226562 14.33789062 C49.61040852 14.79643251 51.43009281 15.12822097 53.25 15.4375 C54.24 14.7775 55.23 14.1175 56.25 13.4375 C29.08596699 4.32054807 0.5657506 1.64691984 -27.75 6.4375 Z M-81.75 26.4375 C-80.265 27.4275 -80.265 27.4275 -78.75 28.4375 C-76.61514061 27.86224491 -76.61514061 27.86224491 -74.390625 26.62109375 C-73.09958862 25.97261475 -73.09958862 25.97261475 -71.7824707 25.31103516 C-70.40514771 24.60019775 -70.40514771 24.60019775 -69 23.875 C-54.66539712 16.78146257 -40.37819961 12.64190748 -24.75 9.4375 C-38.19667916 0.47304722 -69.44548932 19.39717997 -81.75 26.4375 Z M56.25 14.4375 C55.59 15.0975 54.93 15.7575 54.25 16.4375 C56.84925496 17.63692605 59.45345507 18.82222821 62.0625 20 C62.80048828 20.34224609 63.53847656 20.68449219 64.29882812 21.03710938 C65.01103516 21.35615234 65.72324219 21.67519531 66.45703125 22.00390625 C67.43893433 22.45165405 67.43893433 22.45165405 68.44067383 22.90844727 C70.45780553 23.68476917 70.45780553 23.68476917 73.25 22.4375 C70.68582853 19.39087118 67.84030769 18.22798902 64.1875 16.75 C63.12402344 16.31300781 62.06054688 15.87601563 60.96484375 15.42578125 C58.41829681 14.32347709 58.41829681 14.32347709 56.25 14.4375 Z M74.25 22.4375 C73.59 23.0975 72.93 23.7575 72.25 24.4375 C73.06791016 24.76621094 73.06791016 24.76621094 73.90234375 25.1015625 C82.56578034 28.74464865 89.76074649 33.91866517 97.0859375 39.74609375 C98.39870623 40.77213863 99.73279324 41.77260333 101.1015625 42.72265625 C132.36673528 64.47523391 151.8184254 103.51248316 158.70703125 140.04296875 C165.38445624 181.7888847 156.87704817 225.22616364 132.25 259.9375 C124.72281768 270.15884183 116.4037901 279.64583786 107.25 288.4375 C106.59 289.0975 105.93 289.7575 105.25 290.4375 C106.24 290.7675 107.23 291.0975 108.25 291.4375 C110.15424546 290.24933087 110.15424546 290.24933087 112 288.4375 C112.71027344 287.77878906 113.42054688 287.12007813 114.15234375 286.44140625 C114.84457031 285.78011719 115.53679687 285.11882812 116.25 284.4375 C116.80816406 283.93089844 117.36632812 283.42429687 117.94140625 282.90234375 C145.20315788 257.21717535 162.90183653 216.50145496 164.37255859 179.34082031 C165.06345001 149.988403 161.30928094 122.98333122 148.25 96.4375 C147.94336426 95.80650391 147.63672852 95.17550781 147.32080078 94.52539062 C134.17261092 67.77915061 113.87122732 46.43338516 89.25 29.9375 C88.63954834 29.52838379 88.02909668 29.11926758 87.40014648 28.69775391 C81.2786381 24.2989012 81.2786381 24.2989012 74.25 22.4375 Z M-83.75 27.4375 C-86.44433317 29.30947454 -86.44433317 29.30947454 -88.75 31.4375 C-86.96858253 32.30108623 -86.96858253 32.30108623 -84.75 32.4375 C-82.47855926 30.58317913 -82.47855926 30.58317913 -80.75 28.4375 C-81.74 28.1075 -82.73 27.7775 -83.75 27.4375 Z M-91.75 32.4375 C-92.74 33.4275 -93.73 34.4175 -94.75 35.4375 C-93.43 35.7675 -92.11 36.0975 -90.75 36.4375 C-90.42 35.7775 -90.09 35.1175 -89.75 34.4375 C-90.41 33.7775 -91.07 33.1175 -91.75 32.4375 Z M-99.75 38.4375 C-100.74 39.4275 -101.73 40.4175 -102.75 41.4375 C-101.43 41.7675 -100.11 42.0975 -98.75 42.4375 C-98.42 41.7775 -98.09 41.1175 -97.75 40.4375 C-98.41 39.7775 -99.07 39.1175 -99.75 38.4375 Z M-112.34472656 48.70263672 C-113.25689941 49.62326904 -113.25689941 49.62326904 -114.1875 50.5625 C-114.81495117 51.19559082 -115.44240234 51.82868164 -116.08886719 52.48095703 C-148.43365269 85.65530661 -163.41024277 128.54515613 -162.9609375 174.4296875 C-162.46223199 197.1300237 -156.75923075 219.09155972 -146.75 239.4375 C-146.44336426 240.06849609 -146.13672852 240.69949219 -145.82080078 241.34960938 C-134.85206466 263.66237273 -118.45778278 283.33780004 -98.75 298.4375 C-97.76 297.7775 -96.77 297.1175 -95.75 296.4375 C-96.65621094 295.67566406 -97.56242187 294.91382813 -98.49609375 294.12890625 C-129.92925386 267.56189519 -151.18913735 233.45469166 -157.75 192.4375 C-158.02650391 190.7359375 -158.02650391 190.7359375 -158.30859375 189 C-163.12377487 148.60571176 -153.45728308 105.35315074 -128.58374023 72.70581055 C-123.58298964 66.37245916 -118.21102842 60.37570566 -112.75 54.4375 C-108.50552731 49.90993134 -108.50552731 49.90993134 -105.75 44.4375 C-108.89933219 44.4375 -110.21530112 46.60880224 -112.34472656 48.70263672 Z M-53.75 99.4375 C-53.75 100.0975 -53.75 100.7575 -53.75 101.4375 C-52.863125 101.334375 -51.97625 101.23125 -51.0625 101.125 C-47.75 101.4375 -47.75 101.4375 -45 103.625 C-40.67326141 109.03342324 -40.45848745 113.61017728 -40.49121094 120.27929688 C-40.4877063 121.15957047 -40.48420166 122.03984406 -40.48059082 122.9467926 C-40.47180459 125.85002582 -40.47761171 128.7530144 -40.484375 131.65625 C-40.48302746 133.67736864 -40.48108618 135.69848696 -40.47857666 137.71960449 C-40.47562961 141.95291229 -40.47990962 146.18613562 -40.48925781 150.41943359 C-40.50065206 155.84339878 -40.49409035 161.26716603 -40.48211288 166.69112396 C-40.47488302 170.86384571 -40.47718741 175.0365206 -40.48236847 179.20924377 C-40.48370184 181.20911177 -40.48206818 183.20898403 -40.47740936 185.20884705 C-40.47232568 188.00458026 -40.48008036 190.7999937 -40.49121094 193.59570312 C-40.48716248 194.42078873 -40.48311401 195.24587433 -40.47894287 196.09596252 C-40.51592315 201.1144173 -40.69737502 205.38487502 -44.4375 209.125 C-47.42136675 210.81854599 -50.43342143 211.60835536 -53.75 212.4375 C-53.42 213.0975 -53.09 213.7575 -52.75 214.4375 C-36.25 214.4375 -19.75 214.4375 -2.75 214.4375 C-2.75 213.7775 -2.75 213.1175 -2.75 212.4375 C-3.43707031 212.27894531 -4.12414062 212.12039062 -4.83203125 211.95703125 C-5.73308594 211.72371094 -6.63414062 211.49039063 -7.5625 211.25 C-8.90248047 210.91935547 -8.90248047 210.91935547 -10.26953125 210.58203125 C-13.63013099 209.03139232 -14.2251214 207.8268401 -15.75 204.4375 C-16.21566961 201.06901386 -16.23854424 197.72115652 -16.26171875 194.32421875 C-16.27966995 193.35466751 -16.29762115 192.38511627 -16.31611633 191.38618469 C-16.37016049 188.29916694 -16.40409647 185.2123033 -16.4375 182.125 C-16.47067824 180.02797338 -16.50516837 177.93096707 -16.54101562 175.83398438 C-16.62588378 170.7019342 -16.69272337 165.56992928 -16.75 160.4375 C-12.35756373 162.14068957 -9.22013601 163.37585367 -6.1953125 167.1015625 C-5.3276123 168.16165527 -5.3276123 168.16165527 -4.44238281 169.24316406 C-1.76290082 172.71736835 0.8395454 176.23181064 3.375 179.8125 C4.50256583 181.38804827 5.63017122 182.96356823 6.7578125 184.5390625 C7.33047852 185.3424707 7.90314453 186.14587891 8.49316406 186.97363281 C11.4015723 191.05251774 14.32422224 195.12106486 17.25 199.1875 C18.04108154 200.29424072 18.04108154 200.29424072 18.84814453 201.42333984 C19.35200684 202.12410645 19.85586914 202.82487305 20.375 203.546875 C20.81070313 204.15499023 21.24640625 204.76310547 21.6953125 205.38964844 C22.20835937 206.06543945 22.72140625 206.74123047 23.25 207.4375 C23.96631592 208.49565918 24.68263184 209.55381836 25.4206543 210.64404297 C28.47827937 213.66288377 29.91715174 214.12001987 34.15278625 214.11727905 C35.26245003 214.07082748 35.26245003 214.07082748 36.39453125 214.0234375 C37.16431808 214.01494781 37.93410492 214.00645813 38.72721863 213.99771118 C41.1737671 213.96425703 43.61695691 213.88900592 46.0625 213.8125 C47.72586368 213.78238948 49.38927929 213.75501555 51.05273438 213.73046875 C55.11977371 213.66449369 59.18431851 213.56103843 63.25 213.4375 C61.27535931 211.46285931 60.06510434 210.83659246 57.5625 209.75 C49.15880271 205.61628944 43.87795461 197.66633923 38.25 190.4375 C36.9925717 188.84276157 35.73511602 187.2480446 34.47705078 185.65380859 C32.59914186 183.26996971 30.72950071 180.87969293 28.859375 178.48974609 C27.06714456 176.20432603 25.26777985 173.9246021 23.46875 171.64453125 C22.18729756 170.01317983 20.90604523 168.38167121 19.625 166.75 C19.00866699 165.97140625 18.39233398 165.1928125 17.75732422 164.390625 C17.1851416 163.65972656 16.61295898 162.92882812 16.0234375 162.17578125 C15.25652588 161.20185425 15.25652588 161.20185425 14.47412109 160.20825195 C13.25 158.4375 13.25 158.4375 12.25 155.4375 C13.219375 155.355 14.18875 155.2725 15.1875 155.1875 C23.96374062 153.90837181 31.07987185 149.4882193 36.5 142.5625 C40.49311257 135.43194184 41.38963547 127.97541611 39.75 120.0078125 C37.87392147 113.67604745 35.25926879 109.26941983 29.57421875 105.80859375 C18.39191255 99.91195198 8.60060512 99.14684771 -3.84765625 99.2421875 C-5.29210716 99.24592494 -6.73656064 99.24876845 -8.18101501 99.25076294 C-11.95392042 99.25834194 -15.726668 99.27794 -19.49951172 99.3001709 C-23.3609809 99.32075399 -27.22247597 99.32979111 -31.08398438 99.33984375 C-38.6393943 99.36119227 -46.1946749 99.3952575 -53.75 99.4375 Z M-95.75 297.4375 C-95.75 298.4275 -95.75 299.4175 -95.75 300.4375 C-93.63171683 302.32867317 -93.63171683 302.32867317 -90.9375 304.0625 C-90.04417969 304.67351562 -89.15085937 305.28453125 -88.23046875 305.9140625 C-85.76115444 307.55990874 -85.76115444 307.55990874 -82.75 308.4375 C-82.09 307.7775 -81.43 307.1175 -80.75 306.4375 C-82.68462002 305.12075862 -84.62279697 303.80924202 -86.5625 302.5 C-87.64144531 301.76910156 -88.72039062 301.03820312 -89.83203125 300.28515625 C-92.64920018 298.33757384 -92.64920018 298.33757384 -95.75 297.4375 Z M95.25 297.4375 C94.26 298.9225 94.26 298.9225 93.25 300.4375 C94.57 300.4375 95.89 300.4375 97.25 300.4375 C97.91 299.7775 98.57 299.1175 99.25 298.4375 C97.93 298.1075 96.61 297.7775 95.25 297.4375 Z M84.26953125 304.2734375 C83.54121094 304.78132813 82.81289062 305.28921875 82.0625 305.8125 C50.54686972 325.99356149 8.01460493 332.98146431 -28.6628418 325.92016602 C-30.70667386 325.47198124 -32.72642156 324.96962444 -34.75 324.4375 C-35.55002441 324.22818848 -36.35004883 324.01887695 -37.17431641 323.80322266 C-50.86288168 320.1197447 -64.96789109 315.85755739 -77.015625 308.22265625 C-78.92911779 307.11980015 -78.92911779 307.11980015 -81.75 308.4375 C-67.044861 324.42901849 -31.54345698 330.6776955 -10.83984375 331.56176758 C26.67050926 332.46972951 57.98007846 324.43015137 90.25 305.4375 C87.42744402 303.51263807 87.42744402 303.51263807 84.26953125 304.2734375 Z " fill="#000000" transform="translate(166.75,-0.43750000000000006)"/>
<path d="M0 0 C6.2972247 1.62822077 9.53593966 5.23907036 12.8125 10.71484375 C17.32170284 19.39209263 16.87038798 29.28671452 14.7578125 38.64453125 C12.84035745 44.60445598 9.40093526 49.73431821 4 53 C-2.66090327 55.33715904 -9.00069658 55.17338649 -16 55 C-16.88915706 44.54316278 -17.16030384 34.19726934 -16.92285156 23.70727539 C-16.89056068 22.09124854 -16.86966694 20.47495925 -16.859375 18.85864258 C-16.84418565 16.48412057 -16.79698471 14.11218012 -16.7421875 11.73828125 C-16.74298309 11.01852615 -16.74377869 10.29877106 -16.74459839 9.5572052 C-16.61700886 5.80814614 -16.27137592 4.27904928 -13.61694336 1.54956055 C-9.16277213 -1.08787063 -5.01375685 -0.66897037 0 0 Z " fill="#000000" transform="translate(166,102)"/>
<path d="M0 0 C5.58674804 -0.02478762 11.1734638 -0.04290152 16.76025391 -0.05493164 C18.65934812 -0.05994885 20.5584385 -0.06676411 22.45751953 -0.07543945 C25.19304352 -0.08761963 27.92851626 -0.09325454 30.6640625 -0.09765625 C31.50804596 -0.10281754 32.35202942 -0.10797882 33.22158813 -0.11329651 C37.59835842 -0.11370954 41.69004167 0.11911036 46 1 C45.67 1.66 45.34 2.32 45 3 C44.34 2.67 43.68 2.34 43 2 C42.67 2.99 42.34 3.98 42 5 C28.14 4.505 28.14 4.505 14 4 C14.33 3.01 14.66 2.02 15 1 C10.05 1.33 5.1 1.66 0 2 C0 1.34 0 0.68 0 0 Z " fill="#0B0B0B" transform="translate(148,0)"/>
<path d="M0 0 C0.33 0 0.66 0 1 0 C1 8.25 1 16.5 1 25 C0.67 25 0.34 25 0 25 C0 16.75 0 8.5 0 0 Z " fill="#000000" transform="translate(329,155)"/>
<path d="M0 0 C0.33 0 0.66 0 1 0 C1 8.25 1 16.5 1 25 C0.67 25 0.34 25 0 25 C0 16.75 0 8.5 0 0 Z " fill="#000000" transform="translate(5,155)"/>
<path d="M0 0 C7.92 0 15.84 0 24 0 C24 0.33 24 0.66 24 1 C16.08 1 8.16 1 0 1 C0 0.67 0 0.34 0 0 Z " fill="#000000" transform="translate(156,5)"/>
<path d="M0 0 C0 3 0 3 -1.53125 4.82421875 C-2.1809375 5.43910156 -2.830625 6.05398438 -3.5 6.6875 C-4.1496875 7.31011719 -4.799375 7.93273437 -5.46875 8.57421875 C-5.9740625 9.04472656 -6.479375 9.51523437 -7 10 C-7.66 9.67 -8.32 9.34 -9 9 C-6.03 6.03 -3.06 3.06 0 0 Z " fill="#000000" transform="translate(286,277)"/>
<path d="M0 0 C2.97 0 5.94 0 9 0 C9 0.33 9 0.66 9 1 C6.03 1 3.06 1 0 1 C0 0.67 0 0.34 0 0 Z " fill="#000000" transform="translate(155,329)"/>
<path d="M0 0 C2.64 0 5.28 0 8 0 C8 0.33 8 0.66 8 1 C5.36 1 2.72 1 0 1 C0 0.67 0 0.34 0 0 Z " fill="#000000" transform="translate(170,329)"/>
<path d="M0 0 C1.98 0.99 1.98 0.99 4 2 C3.67 2.66 3.34 3.32 3 4 C2.01 2.68 1.02 1.36 0 0 Z " fill="#000000" transform="translate(49,279)"/>
<path d="M0 0 C0 0.99 0 1.98 0 3 C-0.99 3.495 -0.99 3.495 -2 4 C-1.34 2.68 -0.68 1.36 0 0 Z " fill="#000000" transform="translate(292,270)"/>
<path d="M0 0 C0.33 0 0.66 0 1 0 C1 1.98 1 3.96 1 6 C0.67 6 0.34 6 0 6 C0 4.02 0 2.04 0 0 Z " fill="#000000" transform="translate(328,145)"/>
<path d="M0 0 C1.485 0.99 1.485 0.99 3 2 C2.67 2.66 2.34 3.32 2 4 C1.34 2.68 0.68 1.36 0 0 Z " fill="#000000" transform="translate(290,61)"/>
<path d="M0 0 C0 0.99 0 1.98 0 3 C-0.99 3.495 -0.99 3.495 -2 4 C-1.34 2.68 -0.68 1.36 0 0 Z " fill="#000000" transform="translate(44,61)"/>
<path d="M0 0 C0.33 0 0.66 0 1 0 C1 1.65 1 3.3 1 5 C0.67 5 0.34 5 0 5 C0 3.35 0 1.7 0 0 Z " fill="#000000" transform="translate(328,185)"/>
<path d="M0 0 C0.33 0 0.66 0 1 0 C1 1.65 1 3.3 1 5 C0.67 5 0.34 5 0 5 C0 3.35 0 1.7 0 0 Z " fill="#000000" transform="translate(6,145)"/>
<path d="M0 0 C0.66 0.33 1.32 0.66 2 1 C1.01 1.66 0.02 2.32 -1 3 C-0.67 2.01 -0.34 1.02 0 0 Z " fill="#000000" transform="translate(50,54)"/>
<path d="M0 0 C0.99 0.33 1.98 0.66 3 1 C2.67 1.66 2.34 2.32 2 3 C1.34 2.01 0.68 1.02 0 0 Z " fill="#000000" transform="translate(270,42)"/>
<path d="M0 0 C1.65 0 3.3 0 5 0 C5 0.33 5 0.66 5 1 C3.35 1 1.7 1 0 1 C0 0.67 0 0.34 0 0 Z " fill="#000000" transform="translate(145,6)"/>
<path d="M0 0 C4 1 4 1 4 1 Z " fill="#000000" transform="translate(185,328)"/>
<path d="M0 0 C0.66 0.33 1.32 0.66 2 1 C1.01 1 0.02 1 -1 1 C-0.67 0.67 -0.34 0.34 0 0 Z " fill="#000000" transform="translate(253,304)"/>
<path d="M0 0 C0.66 0.33 1.32 0.66 2 1 C1.01 1 0.02 1 -1 1 C-0.67 0.67 -0.34 0.34 0 0 Z " fill="#000000" transform="translate(262,298)"/>
<path d="M0 0 C0 3 0 3 0 3 Z " fill="#000000" transform="translate(296,265)"/>
<path d="M0 0 C1 4 1 4 1 4 Z " fill="#000000" transform="translate(6,185)"/>
<path d="M0 0 C1 4 1 4 1 4 Z " fill="#000000" transform="translate(327,139)"/>
<path d="M0 0 C1 4 1 4 1 4 Z " fill="#000000" transform="translate(7,139)"/>
<path d="M0 0 C0 3 0 3 0 3 Z " fill="#000000" transform="translate(34,74)"/>
<path d="M0 0 C0 3 0 3 0 3 Z " fill="#000000" transform="translate(36,71)"/>
<path d="M0 0 C0.99 0.495 0.99 0.495 2 1 C1.67 1.66 1.34 2.32 1 3 C0.67 2.01 0.34 1.02 0 0 Z " fill="#000000" transform="translate(295,67)"/>
<path d="M0 0 C0 3 0 3 0 3 Z " fill="#000000" transform="translate(39,67)"/>
<path d="M0 0 C0.99 0.33 1.98 0.66 3 1 C2.01 1 1.02 1 0 1 C0 0.67 0 0.34 0 0 Z " fill="#000000" transform="translate(252,29)"/>
<path d="M0 0 C4 1 4 1 4 1 Z " fill="#000000" transform="translate(185,6)"/>
<path d="M0 0 C3 1 3 1 3 1 Z " fill="#000000" transform="translate(146,328)"/>
<path d="M0 0 C3 1 3 1 3 1 Z " fill="#000000" transform="translate(207,324)"/>
<path d="M0 0 C0.66 0 1.32 0 2 0 C1.67 0.66 1.34 1.32 1 2 C0.67 1.34 0.34 0.68 0 0 Z " fill="#000000" transform="translate(53,283)"/>
<path d="M0 0 C0.66 0 1.32 0 2 0 C1.67 0.66 1.34 1.32 1 2 C0.67 1.34 0.34 0.68 0 0 Z " fill="#000000" transform="translate(47,277)"/>
<path d="" fill="#000000" transform="translate(0,0)"/>
<path d="" fill="#000000" transform="translate(0,0)"/>
<path d="" fill="#000000" transform="translate(0,0)"/>
<path d="" fill="#000000" transform="translate(0,0)"/>
<path d="" fill="#000000" transform="translate(0,0)"/>
<path d="" fill="#000000" transform="translate(0,0)"/>
<path d="" fill="#000000" transform="translate(0,0)"/>
<path d="" fill="#000000" transform="translate(0,0)"/>
<path d="" fill="#0C0000" transform="translate(0,0)"/>
<path d="" fill="#000000" transform="translate(0,0)"/>
<path d="" fill="#000000" transform="translate(0,0)"/>
<path d="" fill="#000000" transform="translate(0,0)"/>
<path d="" fill="#000000" transform="translate(0,0)"/>
<path d="" fill="#000000" transform="translate(0,0)"/>
<path d="M0 0 C0.66 0 1.32 0 2 0 C1.67 0.66 1.34 1.32 1 2 C0.67 1.34 0.34 0.68 0 0 Z " fill="#000000" transform="translate(284,55)"/>
<path d="M0 0 C0.66 0 1.32 0 2 0 C1.67 0.66 1.34 1.32 1 2 C0.67 1.34 0.34 0.68 0 0 Z " fill="#000000" transform="translate(282,53)"/>
<path d="M0 0 C0.66 0 1.32 0 2 0 C1.67 0.66 1.34 1.32 1 2 C0.67 1.34 0.34 0.68 0 0 Z " fill="#000000" transform="translate(280,51)"/>
<path d="M0 0 C0.66 0 1.32 0 2 0 C1.67 0.66 1.34 1.32 1 2 C0.67 1.34 0.34 0.68 0 0 Z " fill="#000000" transform="translate(265,38)"/>
<path d="M0 0 C3 1 3 1 3 1 Z " fill="#000000" transform="translate(112,14)"/>
<path d="M0 0 C3 1 3 1 3 1 Z " fill="#000000" transform="translate(118,12)"/>
<path d="M0 0 C3 1 3 1 3 1 Z " fill="#000000" transform="translate(125,10)"/>
<path d="M0 0 C3 1 3 1 3 1 Z " fill="#000000" transform="translate(129,9)"/>
<path d="M0 0 C3 1 3 1 3 1 Z " fill="#000000" transform="translate(134,8)"/>
<path d="M0 0 C3 1 3 1 3 1 Z " fill="#000000" transform="translate(193,7)"/>
<path d="M0 0 C3 1 3 1 3 1 Z " fill="#000000" transform="translate(201,1)"/>
<path d="M0 0 C2 1 2 1 2 1 Z " fill="#000000" transform="translate(194,327)"/>
<path d="M0 0 C2 1 2 1 2 1 Z " fill="#000000" transform="translate(139,327)"/>
<path d="M0 0 C2 1 2 1 2 1 Z " fill="#000000" transform="translate(199,326)"/>
<path d="M0 0 C2 1 2 1 2 1 Z " fill="#000000" transform="translate(134,326)"/>
<path d="M0 0 C2 1 2 1 2 1 Z " fill="#000000" transform="translate(204,325)"/>
<path d="M0 0 C2 1 2 1 2 1 Z " fill="#000000" transform="translate(129,325)"/>
<path d="M0 0 C2 1 2 1 2 1 Z " fill="#000000" transform="translate(125,324)"/>
<path d="M0 0 C2 1 2 1 2 1 Z " fill="#000000" transform="translate(211,323)"/>
<path d="M0 0 C2 1 2 1 2 1 Z " fill="#000000" transform="translate(122,323)"/>
<path d="M0 0 C2 1 2 1 2 1 Z " fill="#000000" transform="translate(218,321)"/>
<path d="M0 0 C2 1 2 1 2 1 Z " fill="#000000" transform="translate(220,320)"/>
<path d="M0 0 C2 1 2 1 2 1 Z " fill="#000000" transform="translate(223,319)"/>
<path d="M0 0 C2 1 2 1 2 1 Z " fill="#007F00" transform="translate(107,318)"/>
<path d="M0 0 C2 1 2 1 2 1 Z " fill="#000000" transform="translate(102,316)"/>
<path d="M0 0 C2 1 2 1 2 1 Z " fill="#000000" transform="translate(233,315)"/>
<path d="M0 0 C2 1 2 1 2 1 Z " fill="#000000" transform="translate(100,315)"/>
<path d="M0 0 C2 1 2 1 2 1 Z " fill="#000000" transform="translate(235,314)"/>
<path d="M0 0 C2 1 2 1 2 1 Z " fill="#000000" transform="translate(237,313)"/>
<path d="M0 0 C2 1 2 1 2 1 Z " fill="#000000" transform="translate(239,312)"/>
<path d="M0 0 C2 1 2 1 2 1 Z " fill="#000000" transform="translate(241,311)"/>
<path d="M0 0 C2 1 2 1 2 1 Z " fill="#000000" transform="translate(243,310)"/>
<path d="M0 0 C2 1 2 1 2 1 Z " fill="#000000" transform="translate(245,309)"/>
<path d="M0 0 C2 1 2 1 2 1 Z " fill="#000000" transform="translate(247,308)"/>
<path d="M0 0 C2 1 2 1 2 1 Z " fill="#000000" transform="translate(86,308)"/>
<path d="M0 0 C2 1 2 1 2 1 Z " fill="#000000" transform="translate(250,306)"/>
<path d="M0 0 C2 1 2 1 2 1 Z " fill="#000000" transform="translate(81,305)"/>
<path d="" fill="#000000" transform="translate(0,0)"/>
<path d="" fill="#000000" transform="translate(0,0)"/>
<path d="" fill="#000000" transform="translate(0,0)"/>
<path d="" fill="#000000" transform="translate(0,0)"/>
<path d="" fill="#000000" transform="translate(0,0)"/>
<path d="" fill="#000000" transform="translate(0,0)"/>
<path d="" fill="#000000" transform="translate(0,0)"/>
<path d="" fill="#000000" transform="translate(0,0)"/>
<path d="" fill="#000000" transform="translate(0,0)"/>
<path d="" fill="#000000" transform="translate(0,0)"/>
<path d="" fill="#000000" transform="translate(0,0)"/>
<path d="" fill="#000000" transform="translate(0,0)"/>
<path d="" fill="#000000" transform="translate(0,0)"/>
<path d="" fill="#000000" transform="translate(0,0)"/>
<path d="" fill="#000000" transform="translate(0,0)"/>
<path d="" fill="#000000" transform="translate(0,0)"/>
<path d="" fill="#000000" transform="translate(0,0)"/>
<path d="" fill="#000000" transform="translate(0,0)"/>
<path d="" fill="#000000" transform="translate(0,0)"/>
<path d="" fill="#000000" transform="translate(0,0)"/>
<path d="" fill="#000000" transform="translate(0,0)"/>
<path d="" fill="#000000" transform="translate(0,0)"/>
<path d="" fill="#000000" transform="translate(0,0)"/>
<path d="" fill="#000000" transform="translate(0,0)"/>
<path d="" fill="#000000" transform="translate(0,0)"/>
<path d="" fill="#000000" transform="translate(0,0)"/>
<path d="" fill="#000000" transform="translate(0,0)"/>
<path d="" fill="#000000" transform="translate(0,0)"/>
<path d="" fill="#000000" transform="translate(0,0)"/>
<path d="" fill="#000000" transform="translate(0,0)"/>
<path d="" fill="#000000" transform="translate(0,0)"/>
<path d="" fill="#000000" transform="translate(0,0)"/>
<path d="" fill="#000000" transform="translate(0,0)"/>
<path d="" fill="#000000" transform="translate(0,0)"/>
<path d="" fill="#000000" transform="translate(0,0)"/>
<path d="" fill="#000000" transform="translate(0,0)"/>
<path d="M0 0 C2 1 2 1 2 1 Z " fill="#000000" transform="translate(120,211)"/>
<path d="" fill="#000000" transform="translate(0,0)"/>
<path d="" fill="#000000" transform="translate(0,0)"/>
<path d="" fill="#000000" transform="translate(0,0)"/>
<path d="" fill="#000000" transform="translate(0,0)"/>
<path d="" fill="#000000" transform="translate(0,0)"/>
<path d="" fill="#000000" transform="translate(0,0)"/>
<path d="" fill="#000000" transform="translate(0,0)"/>
<path d="" fill="#000000" transform="translate(0,0)"/>
<path d="" fill="#000000" transform="translate(0,0)"/>
<path d="" fill="#000000" transform="translate(0,0)"/>
<path d="" fill="#000000" transform="translate(0,0)"/>
<path d="" fill="#000000" transform="translate(0,0)"/>
<path d="" fill="#000000" transform="translate(0,0)"/>
<path d="" fill="#000000" transform="translate(0,0)"/>
<path d="" fill="#000000" transform="translate(0,0)"/>
<path d="" fill="#000000" transform="translate(0,0)"/>
<path d="" fill="#000000" transform="translate(0,0)"/>
<path d="" fill="#000000" transform="translate(0,0)"/>
<path d="" fill="#000000" transform="translate(0,0)"/>
<path d="M0 0 C2 1 2 1 2 1 Z " fill="#000000" transform="translate(159,100)"/>
<path d="" fill="#000000" transform="translate(0,0)"/>
<path d="" fill="#000000" transform="translate(0,0)"/>
<path d="" fill="#000000" transform="translate(0,0)"/>
<path d="" fill="#000000" transform="translate(0,0)"/>
<path d="" fill="#000000" transform="translate(0,0)"/>
<path d="" fill="#000000" transform="translate(0,0)"/>
<path d="" fill="#000000" transform="translate(0,0)"/>
<path d="" fill="#000000" transform="translate(0,0)"/>
<path d="" fill="#000020" transform="translate(0,0)"/>
<path d="" fill="#000000" transform="translate(0,0)"/>
<path d="" fill="#000000" transform="translate(0,0)"/>
<path d="" fill="#000000" transform="translate(0,0)"/>
<path d="" fill="#000000" transform="translate(0,0)"/>
<path d="" fill="#000000" transform="translate(0,0)"/>
<path d="" fill="#000000" transform="translate(0,0)"/>
<path d="" fill="#000000" transform="translate(0,0)"/>
<path d="" fill="#000000" transform="translate(0,0)"/>
<path d="" fill="#000000" transform="translate(0,0)"/>
<path d="" fill="#000000" transform="translate(0,0)"/>
<path d="" fill="#000000" transform="translate(0,0)"/>
<path d="" fill="#000000" transform="translate(0,0)"/>
<path d="" fill="#000000" transform="translate(0,0)"/>
<path d="M0 0 C2 1 2 1 2 1 Z " fill="#000000" transform="translate(66,40)"/>
<path d="M0 0 C2 1 2 1 2 1 Z " fill="#000000" transform="translate(80,30)"/>
<path d="M0 0 C2 1 2 1 2 1 Z " fill="#000000" transform="translate(250,28)"/>
<path d="M0 0 C2 1 2 1 2 1 Z " fill="#000000" transform="translate(83,28)"/>
<path d="M0 0 C2 1 2 1 2 1 Z " fill="#000000" transform="translate(88,25)"/>
<path d="M0 0 C2 1 2 1 2 1 Z " fill="#000000" transform="translate(90,24)"/>
<path d="M0 0 C2 1 2 1 2 1 Z " fill="#000000" transform="translate(241,23)"/>
<path d="M0 0 C2 1 2 1 2 1 Z " fill="#000000" transform="translate(92,23)"/>
<path d="M0 0 C2 1 2 1 2 1 Z " fill="#000000" transform="translate(94,22)"/>
<path d="M0 0 C2 1 2 1 2 1 Z " fill="#000000" transform="translate(96,21)"/>
<path d="M0 0 C2 1 2 1 2 1 Z " fill="#000000" transform="translate(235,20)"/>
<path d="M0 0 C2 1 2 1 2 1 Z " fill="#000000" transform="translate(98,20)"/>
<path d="M0 0 C2 1 2 1 2 1 Z " fill="#000000" transform="translate(233,19)"/>
<path d="M0 0 C2 1 2 1 2 1 Z " fill="#000000" transform="translate(100,19)"/>
<path d="M0 0 C2 1 2 1 2 1 Z " fill="#000000" transform="translate(231,18)"/>
<path d="M0 0 C2 1 2 1 2 1 Z " fill="#000000" transform="translate(102,18)"/>
<path d="M0 0 C2 1 2 1 2 1 Z " fill="#000000" transform="translate(228,17)"/>
<path d="M0 0 C2 1 2 1 2 1 Z " fill="#000000" transform="translate(105,17)"/>
<path d="M0 0 C2 1 2 1 2 1 Z " fill="#000000" transform="translate(226,16)"/>
<path d="M0 0 C2 1 2 1 2 1 Z " fill="#000000" transform="translate(107,16)"/>
<path d="M0 0 C2 1 2 1 2 1 Z " fill="#000000" transform="translate(223,15)"/>
<path d="M0 0 C2 1 2 1 2 1 Z " fill="#000000" transform="translate(110,15)"/>
<path d="M0 0 C2 1 2 1 2 1 Z " fill="#000000" transform="translate(115,13)"/>
<path d="M0 0 C2 1 2 1 2 1 Z " fill="#000000" transform="translate(211,11)"/>
<path d="M0 0 C2 1 2 1 2 1 Z " fill="#000000" transform="translate(122,11)"/>
<path d="M0 0 C2 1 2 1 2 1 Z " fill="#000000" transform="translate(207,10)"/>
<path d="M0 0 C2 1 2 1 2 1 Z " fill="#000000" transform="translate(199,8)"/>
<path d="M0 0 C2 1 2 1 2 1 Z " fill="#000000" transform="translate(205,2)"/>
<path d="M0 0 C2 1 2 1 2 1 Z " fill="#000000" transform="translate(132,1)"/>
<path d="" fill="#FFFFFF" transform="translate(0,0)"/>
<path d="" fill="#FFFFFF" transform="translate(0,0)"/>
<path d="" fill="#000000" transform="translate(0,0)"/>
<path d="" fill="#000000" transform="translate(0,0)"/>
<path d="" fill="#000000" transform="translate(0,0)"/>
<path d="" fill="#FFFFFF" transform="translate(0,0)"/>
<path d="" fill="#000000" transform="translate(0,0)"/>
<path d="" fill="#000000" transform="translate(0,0)"/>
<path d="" fill="#000000" transform="translate(0,0)"/>
<path d="" fill="#000000" transform="translate(0,0)"/>
<path d="" fill="#000000" transform="translate(0,0)"/>
<path d="" fill="#000000" transform="translate(0,0)"/>
<path d="" fill="#000000" transform="translate(0,0)"/>
<path d="" fill="#000000" transform="translate(0,0)"/>
<path d="" fill="#000000" transform="translate(0,0)"/>
<path d="" fill="#000000" transform="translate(0,0)"/>
<path d="" fill="#000000" transform="translate(0,0)"/>
<path d="" fill="#000000" transform="translate(0,0)"/>
<path d="" fill="#000000" transform="translate(0,0)"/>
<path d="" fill="#000000" transform="translate(0,0)"/>
<path d="" fill="#000000" transform="translate(0,0)"/>
<path d="" fill="#000000" transform="translate(0,0)"/>
<path d="" fill="#000000" transform="translate(0,0)"/>
<path d="" fill="#000000" transform="translate(0,0)"/>
<path d="" fill="#000000" transform="translate(0,0)"/>
<path d="" fill="#000000" transform="translate(0,0)"/>
<path d="" fill="#000000" transform="translate(0,0)"/>
<path d="" fill="#FFFFFF" transform="translate(0,0)"/>
<path d="" fill="#000000" transform="translate(0,0)"/>
<path d="" fill="#000000" transform="translate(0,0)"/>
<path d="" fill="#000000" transform="translate(0,0)"/>
<path d="" fill="#000000" transform="translate(0,0)"/>
<path d="" fill="#000000" transform="translate(0,0)"/>
<path d="" fill="#000000" transform="translate(0,0)"/>
<path d="" fill="#000000" transform="translate(0,0)"/>
<path d="" fill="#FFFFFF" transform="translate(0,0)"/>
<path d="" fill="#FFFFFF" transform="translate(0,0)"/>
<path d="" fill="#FFFFFF" transform="translate(0,0)"/>
<path d="" fill="#000000" transform="translate(0,0)"/>
<path d="" fill="#000000" transform="translate(0,0)"/>
<path d="" fill="#000000" transform="translate(0,0)"/>
<path d="" fill="#000000" transform="translate(0,0)"/>
<path d="" fill="#000000" transform="translate(0,0)"/>
<path d="" fill="#000000" transform="translate(0,0)"/>
<path d="" fill="#000000" transform="translate(0,0)"/>
<path d="" fill="#000000" transform="translate(0,0)"/>
<path d="" fill="#000000" transform="translate(0,0)"/>
<path d="" fill="#000000" transform="translate(0,0)"/>
<path d="" fill="#000000" transform="translate(0,0)"/>
<path d="" fill="#000000" transform="translate(0,0)"/>
<path d="" fill="#000000" transform="translate(0,0)"/>
<path d="" fill="#000000" transform="translate(0,0)"/>
<path d="" fill="#000000" transform="translate(0,0)"/>
<path d="" fill="#000000" transform="translate(0,0)"/>
<path d="" fill="#000000" transform="translate(0,0)"/>
<path d="" fill="#000000" transform="translate(0,0)"/>
<path d="" fill="#000000" transform="translate(0,0)"/>
<path d="" fill="#000000" transform="translate(0,0)"/>
<path d="" fill="#000000" transform="translate(0,0)"/>
<path d="" fill="#000000" transform="translate(0,0)"/>
<path d="" fill="#000000" transform="translate(0,0)"/>
<path d="" fill="#000000" transform="translate(0,0)"/>
<path d="" fill="#000000" transform="translate(0,0)"/>
<path d="" fill="#000000" transform="translate(0,0)"/>
<path d="" fill="#000000" transform="translate(0,0)"/>
<path d="" fill="#000000" transform="translate(0,0)"/>
<path d="" fill="#FFFFFF" transform="translate(0,0)"/>
<path d="" fill="#000000" transform="translate(0,0)"/>
<path d="" fill="#000000" transform="translate(0,0)"/>
<path d="" fill="#000000" transform="translate(0,0)"/>
<path d="" fill="#000000" transform="translate(0,0)"/>
<path d="" fill="#000000" transform="translate(0,0)"/>
<path d="" fill="#000000" transform="translate(0,0)"/>
<path d="" fill="#FFFFFF" transform="translate(0,0)"/>
<path d="" fill="#FFFFFF" transform="translate(0,0)"/>
<path d="" fill="#000000" transform="translate(0,0)"/>
<path d="" fill="#FFFFFF" transform="translate(0,0)"/>
<path d="" fill="#000000" transform="translate(0,0)"/>
<path d="" fill="#000000" transform="translate(0,0)"/>
<path d="" fill="#000000" transform="translate(0,0)"/>
<path d="" fill="#000000" transform="translate(0,0)"/>
<path d="" fill="#000000" transform="translate(0,0)"/>
<path d="" fill="#000000" transform="translate(0,0)"/>
<path d="" fill="#000000" transform="translate(0,0)"/>
<path d="" fill="#000000" transform="translate(0,0)"/>
<path d="" fill="#000000" transform="translate(0,0)"/>
<path d="" fill="#000000" transform="translate(0,0)"/>
<path d="" fill="#000000" transform="translate(0,0)"/>
<path d="" fill="#000000" transform="translate(0,0)"/>
<path d="" fill="#000000" transform="translate(0,0)"/>
<path d="" fill="#000000" transform="translate(0,0)"/>
<path d="" fill="#000000" transform="translate(0,0)"/>
<path d="" fill="#000000" transform="translate(0,0)"/>
<path d="" fill="#000000" transform="translate(0,0)"/>
<path d="" fill="#000000" transform="translate(0,0)"/>
<path d="" fill="#000000" transform="translate(0,0)"/>
<path d="" fill="#000000" transform="translate(0,0)"/>
<path d="" fill="#000000" transform="translate(0,0)"/>
<path d="" fill="#000000" transform="translate(0,0)"/>
<path d="" fill="#000000" transform="translate(0,0)"/>
<path d="" fill="#000000" transform="translate(0,0)"/>
<path d="" fill="#000000" transform="translate(0,0)"/>
<path d="" fill="#000000" transform="translate(0,0)"/>
<path d="" fill="#000000" transform="translate(0,0)"/>
<path d="" fill="#000000" transform="translate(0,0)"/>
<path d="" fill="#000000" transform="translate(0,0)"/>
<path d="" fill="#000000" transform="translate(0,0)"/>
<path d="" fill="#000000" transform="translate(0,0)"/>
<path d="" fill="#000000" transform="translate(0,0)"/>
<path d="" fill="#000000" transform="translate(0,0)"/>
<path d="" fill="#000000" transform="translate(0,0)"/>
<path d="" fill="#000000" transform="translate(0,0)"/>
<path d="" fill="#FFFFFF" transform="translate(0,0)"/>
<path d="" fill="#000000" transform="translate(0,0)"/>
<path d="" fill="#000000" transform="translate(0,0)"/>
<path d="" fill="#000000" transform="translate(0,0)"/>
<path d="" fill="#000000" transform="translate(0,0)"/>
<path d="" fill="#000000" transform="translate(0,0)"/>
<path d="" fill="#000000" transform="translate(0,0)"/>
<path d="" fill="#FFFFFF" transform="translate(0,0)"/>
<path d="" fill="#000000" transform="translate(0,0)"/>
<path d="" fill="#000000" transform="translate(0,0)"/>
<path d="" fill="#000000" transform="translate(0,0)"/>
<path d="" fill="#000000" transform="translate(0,0)"/>
<path d="" fill="#000000" transform="translate(0,0)"/>
<path d="" fill="#000000" transform="translate(0,0)"/>
<path d="" fill="#000000" transform="translate(0,0)"/>
<path d="" fill="#FFFFFF" transform="translate(0,0)"/>
<path d="" fill="#FFFFFF" transform="translate(0,0)"/>
<path d="" fill="#000000" transform="translate(0,0)"/>
<path d="" fill="#000000" transform="translate(0,0)"/>
<path d="" fill="#000000" transform="translate(0,0)"/>
<path d="" fill="#000000" transform="translate(0,0)"/>
<path d="" fill="#000000" transform="translate(0,0)"/>
<path d="" fill="#FFFFFF" transform="translate(0,0)"/>
<path d="" fill="#000000" transform="translate(0,0)"/>
<path d="" fill="#000000" transform="translate(0,0)"/>
</svg>
